<svg width="36" height="36" viewBox="0 0 36 36" fill="none" xmlns="http://www.w3.org/2000/svg">
<path d="M34.2206 0L20.1533 11.253L22.7659 4.614L34.2206 0Z" fill="#E17726"/>
<path d="M1.7793 0L15.7186 11.3595L13.234 4.614L1.7793 0Z" fill="#E27625"/>
<path d="M29.1641 26.0865L25.4219 32.2695L33.4293 34.644L35.7177 26.223L29.1641 26.0865Z" fill="#E27625"/>
<path d="M0.295898 26.223L2.57042 34.644L10.5778 32.2695L6.84957 26.0865L0.295898 26.223Z" fill="#E27625"/>
<path d="M10.1396 15.639L7.9082 19.2795L15.8461 19.6605L15.5776 10.446L10.1396 15.639Z" fill="#E27625"/>
<path d="M25.8598 15.639L20.337 10.3395L20.1533 19.6605L28.0912 19.2795L25.8598 15.639Z" fill="#E27625"/>
<path d="M10.5781 32.2695L15.3664 29.7555L11.2417 26.2845L10.5781 32.2695Z" fill="#E27625"/>
<path d="M20.6338 29.7555L25.4221 32.2695L24.7585 26.2845L20.6338 29.7555Z" fill="#E27625"/>
<path d="M25.4221 32.2695L20.6338 29.7555L21.015 33.1215L20.9732 34.5375L25.4221 32.2695Z" fill="#D5BFB2"/>
<path d="M10.5781 32.2695L15.027 34.5375L14.9992 33.1215L15.3664 29.7555L10.5781 32.2695Z" fill="#D5BFB2"/>
<path d="M15.1117 24.06L11.1289 22.797L13.939 21.411L15.1117 24.06Z" fill="#233447"/>
<path d="M20.8877 24.06L22.0604 21.411L24.8844 22.797L20.8877 24.06Z" fill="#233447"/>
<path d="M10.5779 32.2695L11.2693 26.0865L6.84961 26.223L10.5779 32.2695Z" fill="#CC6228"/>
<path d="M24.7305 26.0865L25.4219 32.2695L29.164 26.223L24.7305 26.0865Z" fill="#CC6228"/>
<path d="M28.0912 19.2795L20.1533 19.6605L20.8878 24.06L22.0606 21.411L24.8846 22.797L28.0912 19.2795Z" fill="#CC6228"/>
<path d="M11.1287 22.797L13.9388 21.411L15.1115 24.06L15.8461 19.6605L7.9082 19.2795L11.1287 22.797Z" fill="#CC6228"/>
<path d="M7.9082 19.2795L11.2414 26.2845L11.1287 22.797L7.9082 19.2795Z" fill="#E27525"/>
<path d="M24.8844 22.797L24.7578 26.2845L28.091 19.2795L24.8844 22.797Z" fill="#E27525"/>
<path d="M15.8468 19.6605L15.1123 24.06L16.0444 29.253L16.2419 22.416L15.8468 19.6605Z" fill="#E27525"/>
<path d="M20.1536 19.6605L19.7725 22.401L19.9561 29.253L20.8882 24.06L20.1536 19.6605Z" fill="#E27525"/>
<path d="M20.8881 24.06L19.9561 29.253L20.6335 29.7555L24.7583 26.2845L24.8849 22.797L20.8881 24.06Z" fill="#F5841F"/>
<path d="M11.1289 22.797L11.2416 26.2845L15.3663 29.7555L16.0438 29.253L15.1117 24.06L11.1289 22.797Z" fill="#F5841F"/>
<path d="M20.9727 34.5375L21.0145 33.1215L20.6625 32.787H15.3372L14.9992 33.1215L15.027 34.5375L10.5781 32.2695L12.132 33.639L15.2955 36H20.7043L23.8677 33.639L25.4216 32.2695L20.9727 34.5375Z" fill="#C0AC9D"/>
<path d="M20.6331 29.7555L19.9557 29.253H16.0438L15.3663 29.7555L14.999 33.1215L15.3371 32.787H20.6624L21.0143 33.1215L20.6331 29.7555Z" fill="#161616"/>
<path d="M34.8137 11.985L36.0004 5.772L34.2211 0L20.6338 10.8735L25.8603 15.639L33.2459 17.97L34.8707 15.9135L34.164 15.366L35.2937 14.253L34.4325 13.5225L35.5621 12.594L34.8137 11.985Z" fill="#763E1A"/>
<path d="M0 5.772L1.20056 11.985L0.43821 12.594L1.56782 13.5225L0.706701 14.253L1.83631 15.366L1.12961 15.9135L2.75446 17.97L10.14 15.639L15.3666 10.8735L1.77927 0L0 5.772Z" fill="#763E1A"/>
<path d="M33.2452 17.97L25.8596 15.639L28.091 19.2795L24.7578 26.2845L29.1636 26.223H35.7172L33.2452 17.97Z" fill="#F5841F"/>
<path d="M10.1396 15.639L2.75405 17.97L0.295898 26.223H6.84957L11.2414 26.2845L7.90823 19.2795L10.1396 15.639Z" fill="#F5841F"/>
<path d="M20.1539 19.6605L20.6339 10.8735L22.7665 4.61401H13.2344L15.367 10.8735L15.8469 19.6605L16.0306 22.431L16.0445 29.253H19.9564L19.9703 22.431L20.1539 19.6605Z" fill="#F5841F"/>
</svg>
